# xmcd
#
# Track frame offsets:
# 150
# 12935
# 35938
# 48917
# 60649
# 75545
# 107193
# 118792
# 133146
# 145732
# 156488
# 165366
# 175853
# 186965
# 200898
# 212044
# 224409
# 241080
# 255277
# 268078
#
# Disc length: 3753 seconds
#
#
# Revision: 0
# Processed by: cddbd v1.5PL3 Copyright (c) Steve Scherf et al.
# Submitted via: FreeRIP 2.53 
#
DISCID=290ea714
DTITLE=Ray Charles - Rocking Chair Blues
DYEAR=2001
DGENRE=Blues
TTITLE0=Rocking Chair Blues
TTITLE1=What'd I Say
TTITLE2=Baby, Won't You Please Come Here
TTITLE3=Ray Charles' Blues (aka: Tell Me Baby)
TTITLE4=Hallelujah I Love Her So
TTITLE5=Come Rain Or Comes Shine
TTITLE6=Let The Good Times Roll
TTITLE7=Blues Is My Middle Name
TTITLE8=You Won't Let Me Go [aka: I Love You, I Love You (I Will Never Let You Go)]
TTITLE9=Hey Now
TTITLE10=Goin' Away Blues
TTITLE11=Now She's Gone (aka: Sitting On Top Of The World)
TTITLE12=I Wonder Who's Kissing Her Now
TTITLE13=I'm Going Down To The River
TTITLE14=A Sentimental Blues
TTITLE15=Honey Honey
TTITLE16=I Believe To My Soul
TTITLE17=Baby Let Me Hold Your Hand
TTITLE18=You Always Miss The Water (When The Well Runs Dry)
TTITLE19=Alone In The City
EXTD=
EXTT0=
EXTT1=
EXTT2=
EXTT3=
EXTT4=
EXTT5=
EXTT6=
EXTT7=
EXTT8=
EXTT9=
EXTT10=
EXTT11=
EXTT12=
EXTT13=
EXTT14=
EXTT15=
EXTT16=
EXTT17=
EXTT18=
EXTT19=
PLAYORDER=
